<?xml version="1.0" encoding="utf-8"?>
<!-- Generator: Adobe Illustrator 24.1.0, SVG Export Plug-In . SVG Version: 6.00 Build 0)  -->
<svg version="1.1" id="Layer_1" xmlns="http://www.w3.org/2000/svg" xmlns:xlink="http://www.w3.org/1999/xlink" x="0px" y="0px"
	 viewBox="0 0 677 339" style="enable-background:new 0 0 677 339;" xml:space="preserve">
<g>
	<g>
		<path d="M128.47,315.15c-4.15,0.76-6.09-1.07-6.09-4.63v-3.93c0-1.07-0.2-2.36-1.96-2.36v-2.55c1.77,0,1.96-1.29,1.96-2.36v-3.93
			c0-3.56,1.94-5.39,6.09-4.63v2.67c-1.82-0.48-2.5,0.17-2.5,2.13v3.76c0,1.68,0.14,3.03-1.96,3.65c2.1,0.59,1.96,1.96,1.96,3.62
			v3.76c0,1.96,0.42,2.36,2.5,2.13V315.15z"/>
	</g>
	<g>
		<path d="M137.04,304.43l-7.66-11.76v-0.03h1.77l6.65,10.33l6.68-10.33h1.77v0.03l-7.69,11.76v7.86h-1.52V304.43z"/>
		<path d="M167.97,302.49c-0.03,5.16-3.31,10.13-9.91,10.13c-6.59,0-9.91-4.99-9.91-10.19c0-5.28,3.28-10.1,9.91-10.1
			C164.68,292.33,168,297.19,167.97,302.49z M149.64,302.46c0.03,4.43,2.83,8.76,8.42,8.76c5.61,0,8.45-4.32,8.45-8.76
			c0-4.55-2.81-8.73-8.45-8.73C152.42,293.74,149.61,297.83,149.64,302.46z"/>
		<path d="M186.61,292.64v12.21c0,10.27-15.04,10.3-15.04,0v-12.21h1.49v12.21c0,8.45,12.07,8.42,12.07,0v-12.21H186.61z"/>
		<path d="M206.43,312.28h-1.99l-6.79-7.44h-5.36v7.44h-1.52v-19.64c2.89,0,5.75,0,8.64,0c4.27,0,6.43,3.06,6.45,6.12
			c0.03,3.2-2.08,6.01-6.37,6.01L206.43,312.28z M192.29,303.42h6.96c3.42,0,4.94-1.94,4.97-4.69c0.03-2.3-1.54-4.69-4.8-4.69h-7.13
			V303.42z"/>
		<path d="M218.2,305.49v6.79h-1.52v-19.64c2.86,0,5.75,0,8.62,0c8.53,0,8.53,12.85,0,12.85H218.2z M218.2,294.04v10.07h7.1
			c6.54,0,6.54-10.07,0-10.07H218.2z"/>
		<path d="M250.67,312.28l-2.16-4.83h-11.73l-2.13,4.83h-1.63l8.81-19.64h1.66l8.81,19.64H250.67z M247.92,306.06l-5.28-11.95
			l-5.28,11.95H247.92z"/>
	</g>
	<g>
		<path d="M270.49,312.28h-1.99l-6.79-7.44h-5.36v7.44h-1.52v-19.64c2.89,0,5.75,0,8.64,0c4.27,0,6.43,3.06,6.45,6.12
			c0.03,3.2-2.08,6.01-6.37,6.01L270.49,312.28z M256.35,303.42h6.96c3.42,0,4.94-1.94,4.97-4.69c0.03-2.3-1.54-4.69-4.8-4.69h-7.13
			V303.42z"/>
	</g>
	<g>
		<path d="M279.48,294.02h-7.1v-1.35h15.72v1.35H281v18.27h-1.52V294.02z"/>
		<path d="M291.64,292.64l13.22,16.25v-16.25h1.49v19.64h-0.59l-13.25-16.22v16.22h-1.52v-19.64H291.64z"/>
		<path d="M312.22,301.71h11.51v1.38h-11.51v7.75h12.4v1.46h-13.89v-19.64h13.55v1.43h-12.07V301.71z"/>
		<path d="M343.65,312.28h-1.99l-6.79-7.44h-5.36v7.44h-1.52v-19.64c2.89,0,5.75,0,8.64,0c4.27,0,6.43,3.06,6.45,6.12
			c0.03,3.2-2.08,6.01-6.37,6.01L343.65,312.28z M329.51,303.42h6.96c3.42,0,4.94-1.94,4.97-4.69c0.03-2.3-1.54-4.69-4.8-4.69h-7.13
			V303.42z"/>
		<path d="M355.42,305.49v6.79h-1.51v-19.64c2.86,0,5.75,0,8.61,0c8.53,0,8.53,12.85,0,12.85H355.42z M355.42,294.04v10.07h7.1
			c6.54,0,6.54-10.07,0-10.07H355.42z"/>
		<path d="M387.95,312.28h-1.99l-6.79-7.44h-5.36v7.44h-1.52v-19.64c2.89,0,5.75,0,8.64,0c4.27,0,6.43,3.06,6.45,6.12
			c0.03,3.2-2.08,6.01-6.37,6.01L387.95,312.28z M373.81,303.42h6.96c3.42,0,4.94-1.94,4.97-4.69c0.03-2.3-1.54-4.69-4.8-4.69h-7.13
			V303.42z"/>
		<path d="M409.46,302.49c-0.03,5.16-3.31,10.13-9.91,10.13s-9.91-4.99-9.91-10.19c0-5.28,3.28-10.1,9.91-10.1
			S409.49,297.19,409.46,302.49z M391.13,302.46c0.03,4.43,2.83,8.76,8.42,8.76c5.61,0,8.45-4.32,8.45-8.76
			c0-4.55-2.81-8.73-8.45-8.73C393.91,293.74,391.1,297.83,391.13,302.46z"/>
		<path d="M428.52,296.26c-1.71-1.68-4.1-2.53-6.31-2.53c-5.75,0-8.7,4.21-8.67,8.76c0,4.63,2.95,8.61,8.67,8.61
			c2.1,0,4.29-0.73,5.98-2.27v-5.5h-6.85v-1.32h8.28v7.35c-2.05,2.05-4.49,3.17-7.41,3.17c-6.68,0-10.13-4.66-10.13-10.02
			c-0.03-6.15,4.15-10.16,10.13-10.16c2.58,0,5.19,0.98,7.18,2.95L428.52,296.26z"/>
	</g>
	<g>
		<path d="M449.12,312.28h-1.99l-6.79-7.44h-5.36v7.44h-1.51v-19.64c2.89,0,5.75,0,8.64,0c4.27,0,6.43,3.06,6.45,6.12
			c0.03,3.2-2.08,6.01-6.37,6.01L449.12,312.28z M434.98,303.42h6.96c3.42,0,4.94-1.94,4.97-4.69c0.03-2.3-1.54-4.69-4.8-4.69h-7.13
			V303.42z"/>
		<path d="M467.28,312.28l-2.16-4.83h-11.73l-2.13,4.83h-1.63l8.81-19.64h1.66l8.81,19.64H467.28z M464.53,306.06l-5.28-11.95
			l-5.28,11.95H464.53z"/>
		<path d="M488.28,294.83l-7.52,11.51h-0.5l-7.58-11.51v17.46h-1.52v-19.64c0.73,0,1.07,0,1.8,0l7.52,11.45l7.44-11.45h1.85v19.64
			h-1.49V294.83z"/>
		<path d="M511.25,294.83l-7.52,11.51h-0.5l-7.58-11.51v17.46h-1.51v-19.64c0.73,0,1.07,0,1.8,0l7.52,11.45l7.44-11.45h1.85v19.64
			h-1.49V294.83z"/>
		<path d="M518.55,301.71h11.5v1.38h-11.5v7.75h12.4v1.46h-13.89v-19.64h13.55v1.43h-12.07V301.71z"/>
		<path d="M549.99,312.28H548l-6.79-7.44h-5.36v7.44h-1.51v-19.64c2.89,0,5.75,0,8.64,0c4.26,0,6.43,3.06,6.45,6.12
			c0.03,3.2-2.08,6.01-6.37,6.01L549.99,312.28z M535.85,303.42h6.96c3.42,0,4.94-1.94,4.97-4.69c0.03-2.3-1.54-4.69-4.8-4.69h-7.13
			V303.42z"/>
	</g>
	<g>
		<path d="M550.67,312.48c2.08,0.23,2.5-0.17,2.5-2.13v-3.76c0-1.66-0.14-3.03,1.96-3.62c-2.11-0.62-1.96-1.96-1.96-3.65v-3.76
			c0-1.96-0.67-2.61-2.5-2.13v-2.67c4.15-0.76,6.09,1.07,6.09,4.63v3.93c0,1.07,0.2,2.36,1.96,2.36v2.55
			c-1.77,0-1.96,1.29-1.96,2.36v3.93c0,3.56-1.94,5.39-6.09,4.63V312.48z"/>
	</g>
	<g>
		<path d="M276.79,208.95h16.73c7.64,0,11.34,5.6,11.26,11c-0.06,6.46-3.62,11-11.65,11h-16.34V208.95z M293.71,234.12
			c10.08,0,15.03-6.59,14.96-14.1c-0.06-7.19-5.14-14.36-15.15-14.36c-6.78,0-13.5,0-20.3,0v46.11h3.57v-17.46h12.59l15.93,17.46
			h4.69L293.71,234.12z M236.21,209h28.33v-3.34h-31.82v46.11h32.61v-3.42h-29.11v-18.19h27v-3.23h-27V209z M186.38,205.66v46.11
			h3.57v-38.08l31.09,38.08h1.38v-46.11h-3.49v38.13l-31.04-38.13H186.38z M159.38,251.77h3.55v-42.9h16.68v-3.16h-36.9v3.16h16.68
			V251.77z M105.09,208.95h16.73c7.64,0,11.34,5.6,11.26,11c-0.06,6.46-3.62,11-11.65,11h-16.34V208.95z M122.01,234.12
			c10.08,0,15.03-6.59,14.96-14.1c-0.06-7.19-5.14-14.36-15.15-14.36c-6.78,0-13.5,0-20.3,0v46.11h3.57v-17.46h12.59l15.93,17.46
			h4.69L122.01,234.12z M60.56,237.15l12.38-28.07l12.38,28.07H60.56z M95.59,251.77l-20.67-46.11h-3.88l-20.69,46.11h3.81
			l5.02-11.34h27.53l5.08,11.34H95.59z M32.23,235.82c20.02,0,20.02-30.16,0-30.16c-6.72,0-13.5,0-20.23,0v46.11h3.55v-15.95H32.23z
			 M32.23,208.95c15.35,0,15.35,23.64,0,23.64H15.55v-23.64H32.23z"/>
	</g>
	<g>
		<path d="M640.99,209.87h6.74c0,0,8.41,0,8.41,6.25c0,4.97-5.11,6.05-7.33,6.25L640.99,209.87z M667.14,251.77l-13.67-21.83
			c4.89-1.37,11.08-4.89,11.08-13.81c0-14.64-16.82-14.64-16.82-14.64h-16.74v8.39l7.98,12.59h-7.98v29.31h8.41v-20.98h4.81
			l13.08,20.98H667.14z M622.23,209.87v-8.39h-33.55v50.29h33.55v-8.41h-25.15v-12.57h20.92v-8.33h-20.92v-12.59H622.23z
			 M577.34,201.4h-8.55l-18.33,39.17l-19.11-39.17h-8.55v50.37h8.41v-31.55l15.38,31.55h7.9l14.44-30.9v30.9h8.41V201.4z
			 M511.53,201.4h-8.55l-18.33,39.17l-19.11-39.17h-8.55v50.37h8.41v-31.55l15.38,31.55h7.9l14.44-30.9v30.9h8.41V201.4z
			 M431.25,221.24l6.11,17.46h-12.22L431.25,221.24z M442.34,251.77h9.04l-20.12-51.74l-20.04,51.74h9.06l2.14-5.83h17.68
			L442.34,251.77z M382.98,209.87h6.74c0,0,8.41,0,8.41,6.25c0,4.97-5.11,6.05-7.33,6.25L382.98,209.87z M409.14,251.77
			l-13.67-21.83c4.89-1.37,11.08-4.89,11.08-13.81c0-14.64-16.82-14.64-16.82-14.64h-16.74v8.39l7.98,12.59h-7.98v29.31h8.41v-20.98
			h4.81l13.08,20.98H409.14z M345.18,223.17v7.98h8.41v7.25c-3.1,3.52-7.56,5.68-12.59,5.68c-9.27,0-16.74-5.17-16.74-17.48
			c0-10.98,7.48-17.46,16.74-17.46c4.6,0,8.84,1.87,11.85,4.89l5.91-5.89c-4.54-4.6-10.77-7.41-17.76-7.41
			c-13.87,0-25.13,10.92-25.13,25.87c0,16.46,10.55,25.87,24.05,25.87c5.97,0,10.2-1.43,14.3-5.23l0.45,4.74h7.31v-28.82H345.18z"/>
	</g>
	<g>
		<path d="M394.69,52.69h-0.71c-9.39,0-17.02-7.64-17.02-17.02v-0.71c0-9.38,7.64-17.02,17.02-17.02h0.71
			c9.39,0,17.02,7.64,17.02,17.02v0.71C411.71,45.05,404.08,52.69,394.69,52.69 M393.98,22.26c-7,0-12.69,5.7-12.69,12.69v0.71
			c0,7,5.69,12.69,12.69,12.69h0.71c7,0,12.69-5.7,12.69-12.69v-0.71c0-7-5.7-12.69-12.69-12.69H393.98z"/>
	</g>
	<g>
		<path d="M328.37,57.98c14.72,0,21.91,0.46,31.03,1.04c2.33,0.15,4.75,0.3,7.44,0.46c4.88,0.28,9.01,1.91,11.95,4.71
			c2.8,2.94,4.43,7.08,4.71,11.95c0.15,2.69,0.31,5.1,0.46,7.43c0.58,9.11,1.04,16.31,1.04,31.03c0,14.72-0.46,21.91-1.04,31.03
			c-0.15,2.33-0.3,4.75-0.46,7.43c-0.28,4.88-1.91,9.01-4.71,11.95c-2.95,2.8-7.08,4.43-11.95,4.71c-2.69,0.15-5.1,0.31-7.44,0.46
			c-9.11,0.58-16.31,1.04-31.03,1.04c-14.72,0-21.91-0.46-31.03-1.04c-2.33-0.15-4.75-0.3-7.44-0.46
			c-4.87-0.28-9.01-1.91-11.95-4.71c-2.8-2.95-4.43-7.08-4.71-11.96c-0.15-2.69-0.31-5.1-0.46-7.43
			c-0.58-9.11-1.04-16.31-1.04-31.03c0-14.72,0.46-21.91,1.04-31.03c0.15-2.33,0.3-4.75,0.46-7.44c0.28-4.88,1.91-9.01,4.71-11.95
			c2.95-2.8,7.08-4.43,11.95-4.71c2.69-0.15,5.1-0.31,7.43-0.46C306.46,58.44,313.66,57.98,328.37,57.98 M328.37,52.97
			c-18.7,0-25.7,0.75-38.75,1.5c-6.3,0.36-11.49,2.6-15.19,6.15l-0.04,0.04c-3.55,3.69-5.79,8.89-6.15,15.19
			c-0.75,13.05-1.5,20.04-1.5,38.75c0,18.7,0.75,25.7,1.5,38.75c0.36,6.29,2.6,11.5,6.15,15.19l0.04,0.04
			c3.69,3.55,8.89,5.79,15.19,6.15c13.05,0.75,20.04,1.5,38.75,1.5c18.71,0,25.7-0.75,38.75-1.5c6.29-0.36,11.49-2.6,15.19-6.15
			l0.05-0.04c3.55-3.69,5.79-8.89,6.15-15.19c0.75-13.05,1.5-20.04,1.5-38.75c0-18.71-0.75-25.7-1.5-38.75
			c-0.36-6.29-2.6-11.49-6.15-15.19l-0.05-0.04c-3.69-3.55-8.89-5.79-15.19-6.15C354.07,53.72,347.08,52.97,328.37,52.97z"/>
	</g>
	<g>
		<path d="M301.15,118.62c0,2.34,1.9,4.24,4.24,4.24c2.34,0,4.25-1.9,4.25-4.24c0-2.34-1.9-4.25-4.25-4.25
			C303.05,114.37,301.15,116.27,301.15,118.62"/>
	</g>
	<g>
		<path d="M348.01,118.62c0,2.34,1.9,4.24,4.24,4.24c2.34,0,4.25-1.9,4.25-4.24c0-2.34-1.9-4.25-4.25-4.25
			C349.91,114.37,348.01,116.27,348.01,118.62"/>
	</g>
</g>
</svg>
